<?xml version="1.0" encoding="UTF-8"?>
<svg width="32px" height="32px" version="1.1" viewBox="0 0 1200 1200" xmlns="http://www.w3.org/2000/svg">
 <path fill="white" d="m180 12v885.16c0.058594 59.867 35.039 116.99 93.77 142.8l326.46 143.59 326.46-143.59c58.727-25.812 93.707-82.934 93.758-142.8l-0.003907-885.16zm811.57 885.16c-0.035156 50.281-30.086 95.965-76.5 116.35l-314.84 138.5-314.82-138.48c-46.441-20.41-76.465-66.098-76.523-116.39v-856.26h782.69z"/>
 <path fill="white" d="m600.23 88.402c-23.734 26.941-38.207 62.207-38.207 100.91 1.4023 84.973 11.832 169.77 12.742 254.72 1.8828 79.176-21.863 153.53-50.734 226.07-9.625 20.051-20.027 39.66-30.445 59.305l-30.637-6.1797c-27.574-5.5195-45.504-32.316-39.996-59.879 4.8125-24.145 26.051-40.883 49.738-41.016l11.148 1.2109-24.875-207.78c-8.125-92.508-55.836-173.66-126.14-226.46-12.086-9.0859-24.887-17.375-38.207-24.695v737.94h170.32c12.742 69.145 50.785 129.38 104.26 170.75 12.73 8.7617 23.375 20.352 31.031 33.828 7.668-13.477 18.312-25.066 31.043-33.828 53.473-41.352 91.523-101.61 104.26-170.75h170.29v-737.91c-13.297 7.3086-26.102 15.602-38.184 24.695-70.285 52.801-118.02 133.95-126.16 226.46l-24.863 207.78 11.148-1.2109c23.688 0.13281 44.914 16.871 49.754 41.016 5.5078 27.562-12.422 54.359-39.996 59.879l-30.648 6.1797c-10.414-19.656-20.809-39.254-30.445-59.305-28.871-72.539-52.621-146.89-50.746-226.07 0.91016-84.961 11.34-169.75 12.742-254.72 0.011719-38.727-14.449-73.996-38.188-100.94zm-254.68 182.5c32.953 38.699 55.078 86.914 61.68 139.89l20.496 171.36c-26.102 12.984-45.875 36.828-53.328 65.664h-28.836v-376.92zm509.34 0v376.92h-28.824c-7.4531-28.824-27.238-52.68-53.328-65.664l20.496-171.36c6.5781-52.98 28.719-101.2 61.656-139.9zm-254.66 344.5c13.691 44.746 32.52 87.254 55.906 126.77-22.246 6.7578-41.629 19.922-55.906 37.598-14.27-17.676-33.648-30.84-55.906-37.598 23.398-39.504 42.227-82.008 55.906-126.77zm-254.68 83.379h28.836c9.1094 35.172 36.539 62.941 71.438 72.637l24.48 5.5664c-6.5625 23.773-10.152 48.805-10.152 74.629h-114.6zm480.52 0h28.824v152.82h-114.6c0-25.812-3.5898-50.844-10.152-74.629l24.48-5.5664c34.898-9.6758 62.355-37.453 71.449-72.625zm-306.04 89.949c30.898 4.3906 54.719 30.781 54.719 62.879l-63.672 0.003907c0-21.84 3.2422-42.879 8.9531-62.883zm160.38 0c5.7227 20.004 8.9531 41.051 8.9531 62.879h-63.684c0.011718-32.098 23.832-58.484 54.73-62.879zm-163.56 113.84h57.898v107.26c-28.09-29.387-48.504-66.277-57.898-107.26zm108.84 0h57.898c-9.3711 40.98-29.785 77.867-57.898 107.26z"/>
</svg>
